<?xml version="1.0" encoding="utf-8"?>
<!-- Generator: Adobe Illustrator 16.0.0, SVG Export Plug-In . SVG Version: 6.00 Build 0)  -->
<!DOCTYPE svg PUBLIC "-//W3C//DTD SVG 1.1//EN" "http://www.w3.org/Graphics/SVG/1.1/DTD/svg11.dtd">
<svg version="1.1" id="Layer_1" xmlns="http://www.w3.org/2000/svg" xmlns:xlink="http://www.w3.org/1999/xlink" x="0px" y="0px"
   width="60px" height="26px" viewBox="0 0 60 26" enable-background="new 0 0 183.436 41.005"
   xml:space="preserve">
<g>
  <path fill-rule="evenodd" clip-rule="evenodd" fill="#000000" d="M18.126,0C12.537,3.431,6.484,5.771,0,6.752
    c1.876,13.425,6.938,26.003,18.126,34.253c11.19-8.25,16.248-20.832,18.126-34.258C29.77,5.757,23.715,3.436,18.126,0z
     M15.078,10.572h-0.619c-0.768,0-1.036,0.169-1.127,0.271c-0.094,0.104-0.254,0.436-0.254,1.455c0,1.767-0.037,2.861-0.115,3.345
    c-0.129,0.757-0.355,1.355-0.674,1.78c-0.23,0.302-0.548,0.579-0.949,0.827c0.525,0.317,0.93,0.74,1.205,1.261
    c0.359,0.678,0.533,1.733,0.533,3.221c0,1.281,0.007,2.051,0.021,2.289c0.041,0.348,0.14,0.596,0.291,0.725
    c0.084,0.07,0.34,0.193,1.064,0.193h0.623v2.197h-0.87c-0.696,0-1.196-0.057-1.525-0.178c-0.478-0.172-0.878-0.455-1.188-0.836
    c-0.312-0.383-0.517-0.869-0.609-1.445c-0.085-0.533-0.131-1.393-0.138-2.625c-0.007-1.164-0.062-1.975-0.163-2.406
    c-0.09-0.396-0.263-0.694-0.528-0.914C9.787,19.513,9.441,19.397,9,19.385l-0.305-0.008v-2.244l0.306-0.007
    c0.446-0.013,0.796-0.124,1.067-0.345c0.27-0.22,0.445-0.517,0.537-0.907c0.102-0.438,0.156-1.206,0.161-2.279
    c0.006-1.134,0.022-1.858,0.052-2.215c0.068-0.617,0.188-1.09,0.364-1.455c0.179-0.377,0.407-0.686,0.679-0.916
    c0.277-0.234,0.624-0.411,1.032-0.525c0.29-0.074,0.718-0.11,1.316-0.11h0.868V10.572z M28.097,19.385
    c-0.44,0.013-0.799,0.13-1.062,0.348c-0.27,0.219-0.45,0.523-0.541,0.906c-0.101,0.434-0.156,1.199-0.162,2.275
    c-0.004,1.135-0.021,1.859-0.051,2.215c-0.068,0.619-0.188,1.094-0.367,1.457c-0.181,0.375-0.41,0.68-0.684,0.908
    c-0.281,0.236-0.63,0.412-1.034,0.525c-0.284,0.08-0.718,0.117-1.324,0.117h-0.871v-2.195h0.623c0.776,0,1.049-0.172,1.143-0.273
    c0.075-0.084,0.255-0.398,0.255-1.461c0-1.719,0.027-2.732,0.084-3.189c0.111-0.783,0.345-1.424,0.696-1.911
    c0.243-0.335,0.56-0.622,0.946-0.856c-0.553-0.351-0.968-0.781-1.237-1.288c-0.343-0.654-0.51-1.697-0.51-3.19
    c0-0.98-0.003-2.019-0.021-2.3c-0.037-0.342-0.133-0.59-0.278-0.706c-0.09-0.071-0.35-0.193-1.078-0.193h-0.623v-2.2h0.871
    c0.689,0,1.188,0.059,1.521,0.178c0.478,0.165,0.88,0.447,1.193,0.839c0.31,0.38,0.514,0.868,0.606,1.448
    c0.086,0.53,0.131,1.391,0.139,2.63c0.006,1.163,0.062,1.971,0.162,2.401c0.09,0.386,0.271,0.691,0.538,0.908
    c0.268,0.222,0.625,0.338,1.063,0.35l0.306,0.007v2.244L28.097,19.385z"/>
</g>
</svg>
